<svg width="22" height="17" viewBox="0 0 22 17" fill="none" xmlns="http://www.w3.org/2000/svg">
<path d="M4.2879 9.23503L9.55948 14.5066C9.77464 14.7218 9.87774 14.9728 9.86878 15.2597C9.85981 15.5466 9.74775 15.7976 9.53258 16.0128C9.31742 16.21 9.06639 16.3131 8.7795 16.3221C8.49261 16.331 8.24158 16.2279 8.02641 16.0128L0.92592 8.91228C0.818337 8.8047 0.742132 8.68815 0.697305 8.56264C0.652479 8.43712 0.630066 8.30264 0.630066 8.1592C0.630066 8.01575 0.652479 7.88127 0.697305 7.75576C0.742132 7.63025 0.818337 7.5137 0.92592 7.40611L8.02641 0.30562C8.22365 0.108384 8.4702 0.00976562 8.76605 0.00976562C9.0619 0.00976562 9.31742 0.108384 9.53258 0.30562C9.74775 0.520786 9.85533 0.776296 9.85533 1.07215C9.85533 1.368 9.74775 1.62351 9.53258 1.83868L4.2879 7.08337H20.6137C20.9185 7.08337 21.174 7.18647 21.3802 7.39267C21.5864 7.59887 21.6895 7.85438 21.6895 8.1592C21.6895 8.46402 21.5864 8.71953 21.3802 8.92573C21.174 9.13193 20.9185 9.23503 20.6137 9.23503H4.2879Z" fill="#4B5563"/>
</svg>
